<mxfile host="65bd71144e">
    <diagram id="B5izYE9bR6RBEacKUjwg" name="Page-1">
        <mxGraphModel dx="1271" dy="731" grid="1" gridSize="10" guides="1" tooltips="1" connect="1" arrows="1" fold="1" page="1" pageScale="1" pageWidth="827" pageHeight="1169" math="0" shadow="0">
            <root>
                <mxCell id="0"/>
                <mxCell id="1" parent="0"/>
                <mxCell id="2" value="users" style="swimlane;fontStyle=0;childLayout=stackLayout;horizontal=1;startSize=26;fillColor=none;horizontalStack=0;resizeParent=1;resizeParentMax=0;resizeLast=0;collapsible=1;marginBottom=0;" parent="1" vertex="1">
                    <mxGeometry x="90" y="210" width="140" height="130" as="geometry"/>
                </mxCell>
                <mxCell id="3" value="id (Serial primary key)" style="text;strokeColor=none;fillColor=none;align=left;verticalAlign=top;spacingLeft=4;spacingRight=4;overflow=hidden;rotatable=0;points=[[0,0.5],[1,0.5]];portConstraint=eastwest;" parent="2" vertex="1">
                    <mxGeometry y="26" width="140" height="26" as="geometry"/>
                </mxCell>
                <mxCell id="4" value="name (text)" style="text;strokeColor=none;fillColor=none;align=left;verticalAlign=top;spacingLeft=4;spacingRight=4;overflow=hidden;rotatable=0;points=[[0,0.5],[1,0.5]];portConstraint=eastwest;" parent="2" vertex="1">
                    <mxGeometry y="52" width="140" height="26" as="geometry"/>
                </mxCell>
                <mxCell id="15" value="email (text)" style="text;strokeColor=none;fillColor=none;align=left;verticalAlign=top;spacingLeft=4;spacingRight=4;overflow=hidden;rotatable=0;points=[[0,0.5],[1,0.5]];portConstraint=eastwest;" parent="2" vertex="1">
                    <mxGeometry y="78" width="140" height="26" as="geometry"/>
                </mxCell>
                <mxCell id="5" value="password" style="text;strokeColor=none;fillColor=none;align=left;verticalAlign=top;spacingLeft=4;spacingRight=4;overflow=hidden;rotatable=0;points=[[0,0.5],[1,0.5]];portConstraint=eastwest;" parent="2" vertex="1">
                    <mxGeometry y="104" width="140" height="26" as="geometry"/>
                </mxCell>
                <mxCell id="6" value="listings" style="swimlane;fontStyle=0;childLayout=stackLayout;horizontal=1;startSize=26;fillColor=none;horizontalStack=0;resizeParent=1;resizeParentMax=0;resizeLast=0;collapsible=1;marginBottom=0;" parent="1" vertex="1">
                    <mxGeometry x="320" y="130" width="140" height="156" as="geometry"/>
                </mxCell>
                <mxCell id="16" value="id (Serial primary key)" style="text;strokeColor=none;fillColor=none;align=left;verticalAlign=top;spacingLeft=4;spacingRight=4;overflow=hidden;rotatable=0;points=[[0,0.5],[1,0.5]];portConstraint=eastwest;" parent="6" vertex="1">
                    <mxGeometry y="26" width="140" height="26" as="geometry"/>
                </mxCell>
                <mxCell id="7" value="user_id (fk)" style="text;strokeColor=none;fillColor=none;align=left;verticalAlign=top;spacingLeft=4;spacingRight=4;overflow=hidden;rotatable=0;points=[[0,0.5],[1,0.5]];portConstraint=eastwest;" parent="6" vertex="1">
                    <mxGeometry y="52" width="140" height="26" as="geometry"/>
                </mxCell>
                <mxCell id="17" value="name (text)" style="text;strokeColor=none;fillColor=none;align=left;verticalAlign=top;spacingLeft=4;spacingRight=4;overflow=hidden;rotatable=0;points=[[0,0.5],[1,0.5]];portConstraint=eastwest;" parent="6" vertex="1">
                    <mxGeometry y="78" width="140" height="26" as="geometry"/>
                </mxCell>
                <mxCell id="18" value="description (text)" style="text;strokeColor=none;fillColor=none;align=left;verticalAlign=top;spacingLeft=4;spacingRight=4;overflow=hidden;rotatable=0;points=[[0,0.5],[1,0.5]];portConstraint=eastwest;" parent="6" vertex="1">
                    <mxGeometry y="104" width="140" height="26" as="geometry"/>
                </mxCell>
                <mxCell id="9" value="night_price (int)" style="text;strokeColor=none;fillColor=none;align=left;verticalAlign=top;spacingLeft=4;spacingRight=4;overflow=hidden;rotatable=0;points=[[0,0.5],[1,0.5]];portConstraint=eastwest;" parent="6" vertex="1">
                    <mxGeometry y="130" width="140" height="26" as="geometry"/>
                </mxCell>
                <mxCell id="19" style="edgeStyle=none;html=1;entryX=1;entryY=0.5;entryDx=0;entryDy=0;exitX=0;exitY=0.5;exitDx=0;exitDy=0;" parent="1" source="7" target="3" edge="1">
                    <mxGeometry relative="1" as="geometry"/>
                </mxCell>
                <mxCell id="22" value="late_list" style="swimlane;fontStyle=0;childLayout=stackLayout;horizontal=1;startSize=26;fillColor=none;horizontalStack=0;resizeParent=1;resizeParentMax=0;resizeLast=0;collapsible=1;marginBottom=0;" parent="1" vertex="1">
                    <mxGeometry x="520" y="320" width="250" height="156" as="geometry"/>
                </mxCell>
                <mxCell id="23" value="id (serial primary key)" style="text;strokeColor=none;fillColor=none;align=left;verticalAlign=top;spacingLeft=4;spacingRight=4;overflow=hidden;rotatable=0;points=[[0,0.5],[1,0.5]];portConstraint=eastwest;" parent="22" vertex="1">
                    <mxGeometry y="26" width="250" height="26" as="geometry"/>
                </mxCell>
                <mxCell id="24" value="listing_id (fk)" style="text;strokeColor=none;fillColor=none;align=left;verticalAlign=top;spacingLeft=4;spacingRight=4;overflow=hidden;rotatable=0;points=[[0,0.5],[1,0.5]];portConstraint=eastwest;" parent="22" vertex="1">
                    <mxGeometry y="52" width="250" height="26" as="geometry"/>
                </mxCell>
                <mxCell id="25" value="date (date)" style="text;strokeColor=none;fillColor=none;align=left;verticalAlign=top;spacingLeft=4;spacingRight=4;overflow=hidden;rotatable=0;points=[[0,0.5],[1,0.5]];portConstraint=eastwest;" parent="22" vertex="1">
                    <mxGeometry y="78" width="250" height="26" as="geometry"/>
                </mxCell>
                <mxCell id="33" value="booked_status (boolean)" style="text;strokeColor=none;fillColor=none;align=left;verticalAlign=top;spacingLeft=4;spacingRight=4;overflow=hidden;rotatable=0;points=[[0,0.5],[1,0.5]];portConstraint=eastwest;" parent="22" vertex="1">
                    <mxGeometry y="104" width="250" height="26" as="geometry"/>
                </mxCell>
                <mxCell id="49" value="booker_id (boolean)" style="text;strokeColor=none;fillColor=none;align=left;verticalAlign=top;spacingLeft=4;spacingRight=4;overflow=hidden;rotatable=0;points=[[0,0.5],[1,0.5]];portConstraint=eastwest;" parent="22" vertex="1">
                    <mxGeometry y="130" width="250" height="26" as="geometry"/>
                </mxCell>
                <mxCell id="27" style="edgeStyle=none;html=1;entryX=1;entryY=0.5;entryDx=0;entryDy=0;exitX=0;exitY=0.5;exitDx=0;exitDy=0;" parent="1" source="24" target="16" edge="1">
                    <mxGeometry relative="1" as="geometry">
                        <mxPoint x="500" y="310" as="targetPoint"/>
                    </mxGeometry>
                </mxCell>
                <mxCell id="34" value="1 to many" style="text;html=1;strokeColor=none;fillColor=none;align=center;verticalAlign=middle;whiteSpace=wrap;rounded=0;" parent="1" vertex="1">
                    <mxGeometry x="240" y="240" width="60" height="30" as="geometry"/>
                </mxCell>
                <mxCell id="35" value="1 to many" style="text;html=1;strokeColor=none;fillColor=none;align=center;verticalAlign=middle;whiteSpace=wrap;rounded=0;" parent="1" vertex="1">
                    <mxGeometry x="480" y="240" width="60" height="30" as="geometry"/>
                </mxCell>
                <mxCell id="42" value="request_table" style="swimlane;fontStyle=0;childLayout=stackLayout;horizontal=1;startSize=26;fillColor=none;horizontalStack=0;resizeParent=1;resizeParentMax=0;resizeLast=0;collapsible=1;marginBottom=0;" parent="1" vertex="1">
                    <mxGeometry x="274" y="420" width="140" height="106" as="geometry"/>
                </mxCell>
                <mxCell id="46" value="id (serial primary key)" style="text;strokeColor=none;fillColor=none;align=left;verticalAlign=top;spacingLeft=4;spacingRight=4;overflow=hidden;rotatable=0;points=[[0,0.5],[1,0.5]];portConstraint=eastwest;" parent="42" vertex="1">
                    <mxGeometry y="26" width="140" height="26" as="geometry"/>
                </mxCell>
                <mxCell id="43" value="user_id (FK)" style="text;strokeColor=none;fillColor=none;align=left;verticalAlign=top;spacingLeft=4;spacingRight=4;overflow=hidden;rotatable=0;points=[[0,0.5],[1,0.5]];portConstraint=eastwest;" parent="42" vertex="1">
                    <mxGeometry y="52" width="140" height="28" as="geometry"/>
                </mxCell>
                <mxCell id="44" value="date_list_id (FK)" style="text;strokeColor=none;fillColor=none;align=left;verticalAlign=top;spacingLeft=4;spacingRight=4;overflow=hidden;rotatable=0;points=[[0,0.5],[1,0.5]];portConstraint=eastwest;" parent="42" vertex="1">
                    <mxGeometry y="80" width="140" height="26" as="geometry"/>
                </mxCell>
                <mxCell id="47" style="edgeStyle=none;html=1;entryX=0.998;entryY=0.748;entryDx=0;entryDy=0;entryPerimeter=0;exitX=0;exitY=0.5;exitDx=0;exitDy=0;" parent="1" source="43" target="3" edge="1">
                    <mxGeometry relative="1" as="geometry"/>
                </mxCell>
                <mxCell id="48" style="edgeStyle=none;html=1;entryX=0;entryY=0.5;entryDx=0;entryDy=0;exitX=1;exitY=0.5;exitDx=0;exitDy=0;" parent="1" source="44" target="23" edge="1">
                    <mxGeometry relative="1" as="geometry">
                        <mxPoint x="500" y="380" as="targetPoint"/>
                    </mxGeometry>
                </mxCell>
                <mxCell id="50" value="many to many" style="text;html=1;strokeColor=none;fillColor=none;align=center;verticalAlign=middle;whiteSpace=wrap;rounded=0;" parent="1" vertex="1">
                    <mxGeometry x="200" y="363" width="60" height="30" as="geometry"/>
                </mxCell>
                <mxCell id="51" value="many to many" style="text;html=1;strokeColor=none;fillColor=none;align=center;verticalAlign=middle;whiteSpace=wrap;rounded=0;" parent="1" vertex="1">
                    <mxGeometry x="440" y="446" width="60" height="30" as="geometry"/>
                </mxCell>
                <mxCell id="52" value="1 to many" style="text;html=1;strokeColor=none;fillColor=none;align=center;verticalAlign=middle;whiteSpace=wrap;rounded=0;" parent="1" vertex="1">
                    <mxGeometry x="330" y="320" width="60" height="30" as="geometry"/>
                </mxCell>
                <mxCell id="53" style="edgeStyle=none;html=1;entryX=0;entryY=0.75;entryDx=0;entryDy=0;exitX=0;exitY=0.5;exitDx=0;exitDy=0;" parent="1" source="49" target="34" edge="1">
                    <mxGeometry relative="1" as="geometry"/>
                </mxCell>
                <mxCell id="54" value="&lt;b&gt;welcome page&lt;/b&gt;&lt;br&gt;&lt;br&gt;&lt;i&gt;Link to signup&lt;br&gt;&lt;/i&gt;&lt;br&gt;&lt;i&gt;Link to login&lt;/i&gt;" style="html=1;sketch=1;" parent="1" vertex="1">
                    <mxGeometry x="358" y="750" width="112" height="80" as="geometry"/>
                </mxCell>
                <mxCell id="55" value="" style="html=1;shadow=0;dashed=0;align=center;verticalAlign=middle;shape=mxgraph.arrows2.arrow;dy=0.6;dx=40;direction=south;notch=0;sketch=1;" parent="1" vertex="1">
                    <mxGeometry x="397.5" y="640" width="31" height="100" as="geometry"/>
                </mxCell>
                <mxCell id="56" value="Entry" style="text;html=1;strokeColor=none;fillColor=none;align=center;verticalAlign=middle;whiteSpace=wrap;rounded=0;sketch=1;" parent="1" vertex="1">
                    <mxGeometry x="360" y="660" width="60" height="30" as="geometry"/>
                </mxCell>
                <mxCell id="57" value="get '/welcome'" style="text;html=1;strokeColor=none;fillColor=none;align=center;verticalAlign=middle;whiteSpace=wrap;rounded=0;sketch=1;" parent="1" vertex="1">
                    <mxGeometry x="409.59000000000003" y="660" width="110" height="30" as="geometry"/>
                </mxCell>
                <mxCell id="58" value="" style="html=1;shadow=0;dashed=0;align=center;verticalAlign=middle;shape=mxgraph.arrows2.arrow;dy=0.6;dx=40;direction=south;notch=0;sketch=1;rotation=-30;" parent="1" vertex="1">
                    <mxGeometry x="447.59" y="831" width="34" height="100" as="geometry"/>
                </mxCell>
                <mxCell id="60" value="" style="html=1;shadow=0;dashed=0;align=center;verticalAlign=middle;shape=mxgraph.arrows2.arrow;dy=0.6;dx=40;direction=south;notch=0;sketch=1;rotation=30;" parent="1" vertex="1">
                    <mxGeometry x="363.5" y="830" width="34" height="100" as="geometry"/>
                </mxCell>
                <mxCell id="61" value="get '/login'" style="text;html=1;strokeColor=none;fillColor=none;align=center;verticalAlign=middle;whiteSpace=wrap;rounded=0;sketch=1;" parent="1" vertex="1">
                    <mxGeometry x="460" y="840" width="60" height="30" as="geometry"/>
                </mxCell>
                <mxCell id="62" value="get '/signup'" style="text;html=1;strokeColor=none;fillColor=none;align=center;verticalAlign=middle;whiteSpace=wrap;rounded=0;sketch=1;" parent="1" vertex="1">
                    <mxGeometry x="320" y="840" width="60" height="30" as="geometry"/>
                </mxCell>
                <mxCell id="73" style="edgeStyle=none;html=1;entryX=0.595;entryY=0.015;entryDx=0;entryDy=0;entryPerimeter=0;" parent="1" source="63" target="71" edge="1">
                    <mxGeometry relative="1" as="geometry"/>
                </mxCell>
                <mxCell id="63" value="Login&lt;br&gt;&lt;br&gt;&lt;i&gt;Form with fields:&lt;br&gt;&lt;/i&gt;[email, password]" style="rounded=0;whiteSpace=wrap;html=1;sketch=1;" parent="1" vertex="1">
                    <mxGeometry x="450" y="930" width="120" height="80" as="geometry"/>
                </mxCell>
                <mxCell id="72" style="edgeStyle=none;html=1;entryX=0.313;entryY=0.015;entryDx=0;entryDy=0;entryPerimeter=0;" parent="1" source="64" target="71" edge="1">
                    <mxGeometry relative="1" as="geometry"/>
                </mxCell>
                <mxCell id="64" value="Signup&lt;br&gt;&lt;br&gt;&lt;i&gt;Form with fields:&lt;br&gt;&lt;/i&gt;[name, email, password]&lt;br&gt;Also logs in" style="rounded=0;whiteSpace=wrap;html=1;sketch=1;" parent="1" vertex="1">
                    <mxGeometry x="270" y="930" width="140" height="80" as="geometry"/>
                </mxCell>
                <mxCell id="67" value="" style="curved=1;endArrow=classic;html=1;exitX=1;exitY=0.5;exitDx=0;exitDy=0;" parent="1" source="63" edge="1">
                    <mxGeometry width="50" height="50" relative="1" as="geometry">
                        <mxPoint x="580" y="1000" as="sourcePoint"/>
                        <mxPoint x="530" y="920" as="targetPoint"/>
                        <Array as="points">
                            <mxPoint x="620" y="930"/>
                            <mxPoint x="580" y="900"/>
                        </Array>
                    </mxGeometry>
                </mxCell>
                <mxCell id="68" value="{login failed}" style="text;html=1;strokeColor=none;fillColor=none;align=center;verticalAlign=middle;whiteSpace=wrap;rounded=0;sketch=1;" parent="1" vertex="1">
                    <mxGeometry x="570" y="901" width="85" height="30" as="geometry"/>
                </mxCell>
                <mxCell id="69" value="" style="curved=1;endArrow=classic;html=1;exitX=0;exitY=0.5;exitDx=0;exitDy=0;entryX=0.392;entryY=-0.014;entryDx=0;entryDy=0;entryPerimeter=0;" parent="1" source="64" target="64" edge="1">
                    <mxGeometry width="50" height="50" relative="1" as="geometry">
                        <mxPoint x="450" y="1040" as="sourcePoint"/>
                        <mxPoint x="500" y="990" as="targetPoint"/>
                        <Array as="points">
                            <mxPoint x="260" y="910"/>
                            <mxPoint x="294" y="900"/>
                        </Array>
                    </mxGeometry>
                </mxCell>
                <mxCell id="70" value="{duplicate signup}" style="text;html=1;strokeColor=none;fillColor=none;align=center;verticalAlign=middle;whiteSpace=wrap;rounded=0;sketch=1;" parent="1" vertex="1">
                    <mxGeometry x="210" y="900" width="110" height="30" as="geometry"/>
                </mxCell>
                <mxCell id="78" style="edgeStyle=none;html=1;entryX=0.166;entryY=-0.008;entryDx=0;entryDy=0;entryPerimeter=0;exitX=1.006;exitY=0.694;exitDx=0;exitDy=0;exitPerimeter=0;" parent="1" source="71" target="77" edge="1">
                    <mxGeometry relative="1" as="geometry"/>
                </mxCell>
                <mxCell id="79" style="edgeStyle=none;html=1;entryX=0.889;entryY=-0.012;entryDx=0;entryDy=0;entryPerimeter=0;exitX=0;exitY=1;exitDx=0;exitDy=0;" parent="1" source="71" target="76" edge="1">
                    <mxGeometry relative="1" as="geometry"/>
                </mxCell>
                <mxCell id="71" value="Basic Menu Page&lt;br&gt;&lt;br&gt;&lt;i&gt;link to Lister&lt;br&gt;link to Booker&lt;/i&gt;" style="rounded=0;whiteSpace=wrap;html=1;sketch=1;" parent="1" vertex="1">
                    <mxGeometry x="380" y="1040" width="120" height="60" as="geometry"/>
                </mxCell>
                <mxCell id="74" value="post '/login'" style="text;html=1;strokeColor=none;fillColor=none;align=center;verticalAlign=middle;whiteSpace=wrap;rounded=0;sketch=1;" parent="1" vertex="1">
                    <mxGeometry x="450" y="1010" width="80" height="30" as="geometry"/>
                </mxCell>
                <mxCell id="75" value="post '/signup" style="text;html=1;strokeColor=none;fillColor=none;align=center;verticalAlign=middle;whiteSpace=wrap;rounded=0;sketch=1;" parent="1" vertex="1">
                    <mxGeometry x="329.59000000000003" y="1010" width="80" height="30" as="geometry"/>
                </mxCell>
                <mxCell id="76" value="Create a listing&lt;br&gt;&lt;br&gt;&lt;i&gt;Form with listing:&lt;br&gt;&lt;/i&gt;[name, description, night_price, available_dates]" style="rounded=0;whiteSpace=wrap;html=1;sketch=1;" parent="1" vertex="1">
                    <mxGeometry x="250" y="1140" width="120" height="90" as="geometry"/>
                </mxCell>
                <mxCell id="84" style="edgeStyle=none;html=1;entryX=0.708;entryY=1.054;entryDx=0;entryDy=0;entryPerimeter=0;" parent="1" source="77" target="71" edge="1">
                    <mxGeometry relative="1" as="geometry"/>
                </mxCell>
                <mxCell id="77" value="Request to book a night&lt;br&gt;&lt;i&gt;Shows listing and dates&lt;/i&gt;&lt;br&gt;&lt;i&gt;Button to book a night&lt;/i&gt;" style="rounded=0;whiteSpace=wrap;html=1;sketch=1;" parent="1" vertex="1">
                    <mxGeometry x="520" y="1120" width="150" height="90" as="geometry"/>
                </mxCell>
                <mxCell id="80" value="get '/listing_request:listing_id'" style="text;html=1;strokeColor=none;fillColor=none;align=center;verticalAlign=middle;whiteSpace=wrap;rounded=0;sketch=1;" parent="1" vertex="1">
                    <mxGeometry x="519.59" y="1080" width="180" height="30" as="geometry"/>
                </mxCell>
                <mxCell id="81" value="get '/create_listing'" style="text;html=1;strokeColor=none;fillColor=none;align=center;verticalAlign=middle;whiteSpace=wrap;rounded=0;sketch=1;" parent="1" vertex="1">
                    <mxGeometry x="229.59" y="1100" width="180" height="30" as="geometry"/>
                </mxCell>
                <mxCell id="82" value="" style="endArrow=classic;html=1;entryX=0.585;entryY=1.018;entryDx=0;entryDy=0;entryPerimeter=0;" parent="1" source="76" target="71" edge="1">
                    <mxGeometry width="50" height="50" relative="1" as="geometry">
                        <mxPoint x="350" y="1200" as="sourcePoint"/>
                        <mxPoint x="400" y="1150" as="targetPoint"/>
                    </mxGeometry>
                </mxCell>
                <mxCell id="83" value="post '/listings'" style="text;html=1;strokeColor=none;fillColor=none;align=center;verticalAlign=middle;whiteSpace=wrap;rounded=0;sketch=1;" parent="1" vertex="1">
                    <mxGeometry x="380" y="1130" width="60" height="30" as="geometry"/>
                </mxCell>
                <mxCell id="85" value="post '/book_a_night'" style="text;html=1;strokeColor=none;fillColor=none;align=center;verticalAlign=middle;whiteSpace=wrap;rounded=0;sketch=1;" parent="1" vertex="1">
                    <mxGeometry x="450" y="1110" width="60" height="30" as="geometry"/>
                </mxCell>
            </root>
        </mxGraphModel>
    </diagram>
</mxfile>